Coordinates
version=1
nRows=11
nColumns=46
inDegrees=yes

Units are S.I. units (second, meters, Newtons, ...)
Angles are in degrees.

endheader
time	pelvis_tilt	pelvis_list	pelvis_rotation	pelvis_tx	pelvis_ty	pelvis_tz	bb_angle	bb_tx	bb_ty	bb_tz	hip_flexion_r	hip_adduction_r	hip_rotation_r	knee_angle_r	knee_angle_r_beta	ankle_angle_r	subtalar_angle_r	mtp_angle_r	crank_angle_r	hip_flexion_l	hip_adduction_l	hip_rotation_l	knee_angle_l	knee_angle_l_beta	ankle_angle_l	subtalar_angle_l	mtp_angle_l	crank_angle_l	lumbar_extension	lumbar_bending	lumbar_rotation	arm_flex_r	arm_add_r	arm_rot_r	elbow_flex_r	pro_sup_r	wrist_flex_r	wrist_dev_r	arm_flex_l	arm_add_l	arm_rot_l	elbow_flex_l	pro_sup_l	wrist_flex_l	wrist_dev_l
      2.50500000	    -31.92421251	      3.99278427	      8.19914225	      0.23174978	      1.03548817	     -0.23171359	      0.00000000	      0.50000000	      0.00000000	      0.25000000	     49.26011177	     -9.65417301	      3.67917382	     54.46282940	      0.95055569	     20.07452070	     -8.43868477	      0.00000000	      0.00000000	     94.84526022	      1.05910494	     -0.05018908	     90.71925058	      1.58334962	     17.70576887	     -0.36728386	      0.00000000	      0.00000000	    -45.61361748	     -1.62789098	    -10.79543113	     63.12269985	    -19.07927510	     18.40148643	     79.61171846	     48.74970137	      0.00000000	      0.00000000	     68.63028937	    -36.47075478	     28.96697679	     88.64030606	     48.66135599	      0.00000000	      0.00000000
      2.51000000	    -31.81731644	      4.03601400	      8.28169456	      0.23377680	      1.03620021	     -0.23158617	      0.00000000	      0.50000000	      0.00000000	      0.25000000	     48.89076330	     -9.73749051	      3.63906682	     54.08554872	      0.94397090	     19.71745366	     -8.30515623	      0.00000000	      0.00000000	     94.65029611	      1.17977773	     -0.01754189	     91.00553639	      1.58834625	     17.93695719	     -0.47626669	      0.00000000	      0.00000000	    -45.57605949	     -1.70124769	    -10.86760745	     62.69795202	    -19.00827762	     18.55543614	     79.49482413	     48.77246428	      0.00000000	      0.00000000	     68.29195072	    -36.43460111	     29.10042776	     88.55636524	     48.66716399	      0.00000000	      0.00000000
      2.51500000	    -31.74248777	      4.06167327	      8.35181566	      0.23575074	      1.03678485	     -0.23150091	      0.00000000	      0.50000000	      0.00000000	      0.25000000	     48.61173974	     -9.80072046	      3.61695877	     53.83074736	      0.93952378	     19.40129250	     -8.18076833	      0.00000000	      0.00000000	     94.49706711	      1.29299915	      0.02743103	     91.30158799	      1.59351332	     18.10567628	     -0.57619813	      0.00000000	      0.00000000	    -45.54393634	     -1.76938803	    -10.96432825	     62.39625255	    -18.95341596	     18.65542419	     79.40056161	     48.78101246	      0.00000000	      0.00000000	     68.05110662	    -36.40079152	     29.20249182	     88.47566279	     48.66782459	      0.00000000	      0.00000000
      2.52000000	    -31.47815683	      4.03206153	      8.50277439	      0.23791905	      1.03786048	     -0.23155533	      0.00000000	      0.50000000	      0.00000000	      0.25000000	     48.08377673	     -9.88921388	      3.41590070	     53.51907746	      0.93408411	     18.96285153	     -8.13387992	      0.00000000	      0.00000000	     94.05795400	      1.50175164	      0.11816413	     91.45168822	      1.59613307	     18.46111841	     -0.69240838	      0.00000000	      0.00000000	    -45.54240732	     -1.68247679	    -11.02639674	     61.84082818	    -18.73244008	     18.84294092	     79.08610242	     48.79184991	      0.00000000	      0.00000000	     67.50067101	    -36.32493485	     29.36713340	     88.08755110	     48.63049804	      0.00000000	      0.00000000
      2.52500000	    -31.34044970	      4.02578873	      8.51423524	      0.23987766	      1.03851753	     -0.23150945	      0.00000000	      0.50000000	      0.00000000	      0.25000000	     47.84822283	     -9.94193073	      3.29773310	     53.43116948	      0.93254983	     18.44269812	     -7.88005251	      0.00000000	      0.00000000	     93.79847202	      1.62320959	      0.26714664	     91.69508719	      1.60038118	     18.71817193	     -0.82099370	      0.00000000	      0.00000000	    -45.55251069	     -1.74441197	    -11.05997250	     61.53645354	    -18.63772396	     18.95045022	     78.93749784	     48.79322365	      0.00000000	      0.00000000	     67.27044727	    -36.29108341	     29.44157203	     87.95135909	     48.61937698	      0.00000000	      0.00000000
      2.53000000	    -31.10624815	      3.96232766	      8.57202788	      0.24203119	      1.03955071	     -0.23149160	      0.00000000	      0.50000000	      0.00000000	      0.25000000	     47.45429929	     -9.97102810	      3.08357212	     53.27760031	      0.92986954	     17.91490313	     -7.66819984	      0.00000000	      0.00000000	     93.35370347	      1.76599338	      0.45099746	     91.81459171	      1.60246693	     19.15270855	     -0.95084904	      0.00000000	      0.00000000	    -45.58240993	     -1.68892424	    -11.04338569	     61.05658170	    -18.47206134	     19.09588276	     78.67311834	     48.78602402	      0.00000000	      0.00000000	     66.86615093	    -36.24831542	     29.55688991	     87.69303537	     48.59478102	      0.00000000	      0.00000000
      2.53500000	    -30.88623229	      3.90334587	      8.62966148	      0.24414939	      1.04053545	     -0.23149037	      0.00000000	      0.50000000	      0.00000000	      0.25000000	     47.11584595	    -10.00119507	      2.89994899	     53.19676605	      0.92845872	     17.37961356	     -7.46032439	      0.00000000	      0.00000000	     92.92755959	      1.89558133	      0.58355683	     91.92312949	      1.60436127	     19.54224974	     -1.04462434	      0.00000000	      0.00000000	    -45.61206633	     -1.49700319	    -10.94144987	     60.74246121	    -18.26549057	     19.19504247	     78.45579815	     48.77948138	      0.00000000	      0.00000000	     66.41216862	    -36.22365967	     29.63412188	     87.35355509	     48.55386005	      0.00000000	      0.00000000
      2.54000000	    -30.53815584	      3.72031155	      8.79994210	      0.24627058	      1.04175794	     -0.23171939	      0.00000000	      0.50000000	      0.00000000	      0.25000000	     46.59309746	    -10.03014452	      2.46670118	     53.05905079	      0.92605513	     16.84494840	     -7.46702254	      0.00000000	      0.00000000	     92.37540830	      2.15773676	      0.91794569	     92.00692570	      1.60582379	     20.01105674	     -0.92419744	      0.00000000	      0.00000000	    -45.64477466	     -1.18178219	    -11.03025921	     60.73148073	    -17.38960839	     19.00194106	     77.24769925	     48.66848019	      0.00000000	      0.00000000	     65.95384637	    -35.77156175	     29.14491904	     86.11879426	     48.32591863	      0.00000000	      0.00000000
      2.54500000	    -30.33939523	      3.64513458	      8.87233979	      0.24837209	      1.04277420	     -0.23183173	      0.00000000	      0.50000000	      0.00000000	      0.25000000	     46.32898344	    -10.10171048	      2.21363882	     53.07175146	      0.92627680	     16.27062703	     -7.08246339	      0.00000000	      0.00000000	     91.92232453	      2.31546290	      1.07006870	     92.03330302	      1.60628416	     20.43357647	     -1.14293315	      0.00000000	      0.00000000	    -45.56336622	     -1.10496178	    -11.13358268	     60.45203901	    -16.70908880	     18.83430668	     76.24928089	     48.63931727	      0.00000000	      0.00000000	     65.38166581	    -35.62945562	     28.89261766	     85.61649707	     48.25822588	      0.00000000	      0.00000000
      2.55000000	    -30.11011390	      3.51337078	      8.85750821	      0.25043509	      1.04366084	     -0.23189001	      0.00000000	      0.50000000	      0.00000000	      0.25000000	     46.09272774	    -10.07295814	      1.95252766	     53.14534808	      0.92756131	     15.55897409	     -6.68818405	      0.00000000	      0.00000000	     91.47575454	      2.41585916	      1.34697710	     92.13759751	      1.60810444	     20.87178734	     -1.31364406	      0.00000000	      0.00000000	    -45.59143129	     -1.24796341	    -11.17857225	     59.93117091	    -16.63026012	     18.89999673	     75.95335494	     48.62152478	      0.00000000	      0.00000000	     65.13263992	    -35.64576961	     28.97606523	     85.51848746	     48.25718502	      0.00000000	      0.00000000
      2.55500000	    -29.81571168	      3.36521972	      9.01885514	      0.25267809	      1.04490563	     -0.23226538	      0.00000000	      0.50000000	      0.00000000	      0.25000000	     45.69282449	    -10.18454329	      1.49138730	     53.12625120	      0.92722800	     14.94928128	     -6.32919553	      0.00000000	      0.00000000	     90.89198061	      2.70226672	      1.63901742	     92.12278137	      1.60784585	     21.41243741	     -1.34884218	      0.00000000	      0.00000000	    -45.65220742	     -1.03616073	    -11.19048822	     59.54891602	    -16.24908753	     18.75569667	     75.39908052	     48.56755717	      0.00000000	      0.00000000	     64.66365841	    -35.59935973	     29.00895397	     85.01807452	     48.19370104	      0.00000000	      0.00000000
